<svg xmlns="http://www.w3.org/2000/svg" width="550" height="350" fill="none" viewBox="0 0 550 350">
  <path fill="#fff" d="M0 0h550v350H0z"/>
  <path fill="#413939" d="M0 0h550v350H0z"/>
  <path fill="#fff" d="M153.409 152.352v-12.17h57.341v12.17h-21.375V210h-14.591v-57.648h-21.375ZM220.193 210v-69.818h47.046v12.17h-32.284v16.637h29.863v12.17h-29.863v16.671h32.42V210h-47.182Zm96.656-49.739c-.272-2.75-1.443-4.886-3.511-6.409-2.068-1.522-4.875-2.284-8.42-2.284-2.409 0-4.444.341-6.103 1.023-1.659.659-2.931 1.579-3.818 2.761-.863 1.182-1.295 2.523-1.295 4.023-.046 1.25.216 2.341.784 3.273.591.932 1.398 1.738 2.42 2.42 1.023.659 2.205 1.239 3.546 1.739 1.341.477 2.772.886 4.295 1.227l6.273 1.5c3.045.682 5.841 1.591 8.386 2.727 2.546 1.137 4.75 2.534 6.614 4.194a17.409 17.409 0 0 1 4.329 5.863c1.046 2.25 1.58 4.83 1.603 7.739-.023 4.273-1.114 7.977-3.273 11.113-2.136 3.114-5.227 5.535-9.273 7.262-4.022 1.704-8.875 2.557-14.557 2.557-5.636 0-10.545-.864-14.727-2.591-4.159-1.728-7.409-4.284-9.75-7.671-2.318-3.409-3.534-7.625-3.648-12.647h14.285c.159 2.34.829 4.295 2.011 5.863 1.204 1.546 2.807 2.716 4.807 3.512 2.022.772 4.307 1.159 6.852 1.159 2.5 0 4.67-.364 6.511-1.091 1.864-.728 3.307-1.739 4.33-3.034 1.023-1.296 1.534-2.784 1.534-4.466 0-1.568-.466-2.887-1.398-3.955-.909-1.068-2.25-1.977-4.022-2.727-1.75-.75-3.898-1.432-6.444-2.046l-7.602-1.909c-5.886-1.431-10.534-3.67-13.943-6.716-3.409-3.045-5.102-7.147-5.08-12.306-.022-4.228 1.103-7.921 3.375-11.08 2.296-3.159 5.444-5.625 9.444-7.398 4-1.772 8.545-2.659 13.636-2.659 5.182 0 9.704.887 13.568 2.659 3.886 1.773 6.909 4.239 9.068 7.398s3.273 6.818 3.341 10.977h-14.148Zm22.373-7.909v-12.17h57.34v12.17h-21.374V210h-14.591v-57.648h-21.375Z"/>
</svg>
